<svg xmlns="http://www.w3.org/2000/svg" xmlns:xlink="http://www.w3.org/1999/xlink" viewBox="0 0 860.67 201.9"><defs><style>.cls-1{fill:url(#Degradado_sin_nombre_19);}.cls-2{fill:url(#Degradado_sin_nombre_19-2);}.cls-3{fill:url(#Degradado_sin_nombre_19-3);}.cls-4{fill:url(#Degradado_sin_nombre_19-4);}.cls-5{fill:url(#Degradado_sin_nombre_19-5);}.cls-6{fill:url(#Degradado_sin_nombre_19-6);}.cls-7{fill:url(#Nueva_muestra_de_degradado_2);}.cls-8{fill:url(#Degradado_sin_nombre_38);}.cls-9{fill:url(#Degradado_sin_nombre_38-2);}.cls-10{fill:url(#Degradado_sin_nombre_38-3);}.cls-11{fill:url(#Degradado_sin_nombre_38-4);}.cls-12{fill:url(#Degradado_sin_nombre_38-5);}</style><linearGradient id="Degradado_sin_nombre_19" x1="94.77" y1="14.18" x2="92.29" y2="189.59" gradientUnits="userSpaceOnUse"><stop offset="0" stop-color="#285bbe"/><stop offset="0.53" stop-color="#17bcf8"/><stop offset="1" stop-color="#d653d0"/></linearGradient><linearGradient id="Degradado_sin_nombre_19-2" x1="105.63" y1="14.34" x2="103.15" y2="189.74" xlink:href="#Degradado_sin_nombre_19"/><linearGradient id="Degradado_sin_nombre_19-3" x1="143.55" y1="14.87" x2="141.07" y2="190.28" xlink:href="#Degradado_sin_nombre_19"/><linearGradient id="Degradado_sin_nombre_19-4" x1="48.61" y1="13.53" x2="46.13" y2="188.94" xlink:href="#Degradado_sin_nombre_19"/><linearGradient id="Degradado_sin_nombre_19-5" x1="46.12" y1="13.49" x2="43.64" y2="188.9" xlink:href="#Degradado_sin_nombre_19"/><linearGradient id="Degradado_sin_nombre_19-6" x1="105.32" y1="14.33" x2="102.84" y2="189.74" xlink:href="#Degradado_sin_nombre_19"/><linearGradient id="Nueva_muestra_de_degradado_2" x1="0.36" y1="-16" x2="185.21" y2="211.74" gradientUnits="userSpaceOnUse"><stop offset="0" stop-color="#185bbf"/><stop offset="0.21" stop-color="#4559c3"/><stop offset="0.59" stop-color="#9356ca"/><stop offset="0.87" stop-color="#c354ce"/><stop offset="1" stop-color="#d653d0"/></linearGradient><linearGradient id="Degradado_sin_nombre_38" x1="230.34" y1="100.85" x2="851.45" y2="101.91" gradientUnits="userSpaceOnUse"><stop offset="0" stop-color="#d653d0"/><stop offset="1" stop-color="#285bbe"/></linearGradient><linearGradient id="Degradado_sin_nombre_38-2" x1="230.34" y1="100.72" x2="851.45" y2="101.78" xlink:href="#Degradado_sin_nombre_38"/><linearGradient id="Degradado_sin_nombre_38-3" x1="230.35" y1="100" x2="851.45" y2="101.06" xlink:href="#Degradado_sin_nombre_38"/><linearGradient id="Degradado_sin_nombre_38-4" x1="230.34" y1="101.2" x2="851.45" y2="102.27" xlink:href="#Degradado_sin_nombre_38"/><linearGradient id="Degradado_sin_nombre_38-5" x1="230.34" y1="100.64" x2="851.45" y2="101.7" xlink:href="#Degradado_sin_nombre_38"/></defs><g id="Capa_2" data-name="Capa 2"><g id="Capa_1-2" data-name="Capa 1"><path class="cls-1" d="M13.14,162.71a8,8,0,0,1-.54-1.86c-.12-2.16-.1-4.32-.18-6.48a83.42,83.42,0,0,1,1.51-18.27c1.32-7.06,5-13,9.65-18.4a59.28,59.28,0,0,1,12.3-10.36c12.25-8.11,25.26-14.8,38.29-21.52,10.46-5.39,21.47-9.46,32.09-14.42a367.64,367.64,0,0,0,36.05-19,77.16,77.16,0,0,0,18.3-16,61.35,61.35,0,0,0,8-11.11c.35-.66,1.18-1.07,1.78-1.6a7.9,7.9,0,0,1,1.48,1.89,43.92,43.92,0,0,1,2.9,17.82c-.22,4.29-1.59,8.37-3.07,12.4-2.15,5.84-6,10.45-10.2,14.89A138.45,138.45,0,0,1,129,96.74c-7.72,4.4-15.64,8.48-23.64,12.36-10.89,5.28-22,10.19-32.93,15.33-12.51,5.87-25,11.76-37,18.73A64.65,64.65,0,0,0,19.21,156c-1.45,1.65-2.73,3.44-4.12,5.15-.47.58-1,1.09-1.53,1.63Z"/><path class="cls-2" d="M105.8,48c-12.53-.27-22.74-3.92-31.41-11.38-5.75-5-9.46-11.48-12.59-18.3a53.32,53.32,0,0,1-1.86-5.09c-.09-.29.09-.68.14-1a5.74,5.74,0,0,1,1,.31c3.82,2,7.58,4.13,11.45,6C80.49,22.44,89,24,97.8,24.34c14,.57,27.25-2.31,40.18-7.21,3.49-1.33,6.8-3.13,10.19-4.71a24.07,24.07,0,0,1,2.28-1,1.08,1.08,0,0,1,.9.17c.12.09,0,.57-.09.82-1.19,2.49-2.29,5-3.63,7.44-2.51,4.49-4.88,9.07-8.25,13-6.35,7.44-14.22,12.3-23.94,13.9C111.9,47.39,108.31,47.67,105.8,48Z"/><path class="cls-3" d="M174.8,151.83A21.63,21.63,0,0,1,173,162.57a12.79,12.79,0,0,1-2.11,3.05c-1.07,1.15-2.15.95-3-.37a11.59,11.59,0,0,1-.86-1.59,20.94,20.94,0,0,0-8.81-10.11c-4.6-2.77-9.28-5.4-13.92-8.11-8.49-5-17.05-9.83-25.43-15a28,28,0,0,1-9-9.77c-1.63-2.71-1.23-4.2,1.47-5.84,3.59-2.18,7.23-4.28,10.85-6.42a3,3,0,0,1,2.94-.09c7.68,3.58,15.41,7.06,23,10.8a90.52,90.52,0,0,1,16.47,10.22,27.4,27.4,0,0,1,10.24,18.39A31,31,0,0,1,174.8,151.83Z"/><path class="cls-4" d="M78.31,139.17c-.09,6.14-2.23,10.59-6.4,13.71-7,5.22-14,10.38-21.33,15.06-9.56,6.12-19.43,11.74-29.17,17.57a8.14,8.14,0,0,1-1.33.64c-1.52.59-2.6.27-3.28-1.17-2-4.14-2.83-8.35-.83-12.79,3.82-8.51,9.17-15.63,17.21-20.72,9.33-5.91,19.15-10.88,29-15.89q4-2,8-4a19.56,19.56,0,0,1,3-1.09A3,3,0,0,1,77,132.22a6,6,0,0,1,.66,1.8C78,136,78.17,138,78.31,139.17Z"/><path class="cls-5" d="M13,47.74c.2-1.84.31-3.7.6-5.52A2.78,2.78,0,0,1,17,39.77c3.54.6,7.08,1.27,10.58,2.09,6.48,1.51,13,3,19.21,5.42A68.72,68.72,0,0,1,75.94,68.35a8.51,8.51,0,0,1,2,5.32c0,2.42-1.43,3.77-3.85,3.35a13.28,13.28,0,0,1-3-1c-6.55-2.91-13.2-5.58-20.24-7-5.56-1.13-11.21-1.84-16.8-2.85a74.18,74.18,0,0,1-10.51-2.28C17,61.69,13.17,55.91,13.12,49V47.75Z"/><path class="cls-6" d="M140.06,185.1c-.59-.39-1.18-.72-1.7-1.14a42.51,42.51,0,0,0-20.31-8.78,75,75,0,0,0-20.51-.62,109,109,0,0,0-14,2.78c-5.21,1.29-10.34,2.89-15.5,4.36-.19.05-.38.18-.55.15a5.16,5.16,0,0,1-2.26-.53c-.26-.2,0-1.53.37-2,2.78-3.19,5.5-6.48,8.56-9.39a56.39,56.39,0,0,1,25-13.6,31.31,31.31,0,0,1,19.12.77,51.69,51.69,0,0,1,8.75,3.72A26,26,0,0,1,139.57,178c.32,1.44.65,2.88,1.07,4.29A2.71,2.71,0,0,1,140.06,185.1Z"/><path class="cls-7" d="M0,101.29Q0,65.44,0,29.57A27.82,27.82,0,0,1,11,6.69a26.61,26.61,0,0,1,16.9-6q67.68,0,135.36,0a28.31,28.31,0,0,1,27.3,23A32.77,32.77,0,0,1,191,29.3c0,48-.05,96.05.06,144.07a28.6,28.6,0,0,1-24.74,28.3,33.36,33.36,0,0,1-4.24.21q-66.51,0-133,0c-12.38,0-21.29-5.85-26.65-17A27.49,27.49,0,0,1,0,172.8Q0,137,0,101.29Zm3.9-.09q0,35.7,0,71.4a24.75,24.75,0,0,0,3.3,13.1c5,8.19,12.34,12.31,21.86,12.32q66.5.07,133,0a24.68,24.68,0,0,0,25.12-25.26q0-71.45,0-142.89c0-.71,0-1.42,0-2.13A23.44,23.44,0,0,0,182.67,15,24.25,24.25,0,0,0,162.13,4.56q-66.61,0-133.23,0a19.2,19.2,0,0,0-2,.06c-9.2.87-16,5.36-20.36,13.52A24.46,24.46,0,0,0,3.89,29.91Q3.93,65.55,3.91,101.2Z"/><path class="cls-8" d="M516.53,1.71c.9-.05,1.66-.14,2.41-.14,17,0,34-.07,51,.07a132.49,132.49,0,0,1,37,5.16c8,2.37,15.42,5.79,21.84,11.18,9,7.52,13.06,17.3,13,28.87-.06,9.74-2.75,18.65-9,26.32a44.33,44.33,0,0,1-19.34,13.62c-4.36,1.62-9,2.56-13.48,3.79-.75.2-1.51.35-2.67.61a16.09,16.09,0,0,0,1.66.69c10.4,2.92,18.64,9,25.35,17.31a91.7,91.7,0,0,1,12,19.75c4.49,9.85,8.69,19.85,13.08,29.75,3.51,7.92,7.19,15.78,12,23a48.08,48.08,0,0,0,10.42,11.88,23.68,23.68,0,0,0,13.3,5.32c.51,0,1,.16,1.52.24a3.07,3.07,0,0,1,.25.79,5.9,5.9,0,0,1-.07,1c-.21.14-.35.32-.49.32-12,0-23.71-1.35-34.78-6.28-12.78-5.69-21-15.58-25.66-28.58-2.79-7.7-4.28-15.69-5.69-23.72-1.5-8.45-3-16.9-4.74-25.28a37.24,37.24,0,0,0-6.11-14c-4.82-6.76-11.62-9.91-19.65-10.8a56.42,56.42,0,0,0-6-.38c-12-.06-21.56-5.16-29.29-14-6.57-7.53-10.48-16.47-13.31-25.94-.67-2.24-1.23-4.5-2.07-6.74-.45,8.57-.29,17.13-.32,25.69s0,17.35,0,26V201.18H516.53Zm22.3,2.34c-.07.85-.16,1.45-.15,2.05.07,7.45,0,14.92.27,22.36a88.29,88.29,0,0,0,8.27,34.14A52.55,52.55,0,0,0,563.4,82.94c8.11,6,17.17,8.62,27.19,6.77,12.08-2.22,20.22-9.44,24.82-20.67,3.52-8.58,4.42-17.58,3.77-26.79-1.19-16.85-9.88-28-25.53-34a64.72,64.72,0,0,0-21.6-4.16c-10.48-.24-21-.18-31.46-.23A15.3,15.3,0,0,0,538.83,4.05Z"/><path class="cls-9" d="M354.19,56.15c-.46-.8-.95-1.58-1.38-2.39-6-11.26-13.33-21.52-22.86-30.09C319.41,14.2,307.38,7.55,293.37,5c-16.73-3.07-32.45-.66-46.5,9.57a27.91,27.91,0,0,0-3.17,2.68c-7.3,7.2-9.16,15.66-5.72,25.27,2.46,6.84,6.86,12.41,11.92,17.48,8.34,8.37,18.07,14.84,28.23,20.73a291,291,0,0,0,27.24,13.51,158.68,158.68,0,0,1,26.41,14.49c6.28,4.4,12.07,9.35,16.61,15.61,9.73,13.42,12,28.2,7.4,44-3.39,11.59-11.05,19.84-21.67,25.4a69.49,69.49,0,0,1-27.87,7.71c-28.78,1.94-54.41-6.45-77.19-23.91a91,91,0,0,1-15-14.75,4.83,4.83,0,0,1-1.28-3.26c.05-11.8,0-23.6,0-35.4a5.34,5.34,0,0,1,.1-.66c1,.35,1,1.31,1.32,2a150.36,150.36,0,0,0,21.09,35.72c9.19,11.39,19.91,21,32.78,28.1,10.39,5.73,21.45,9.39,33.36,9.88,13.74.57,26.25-3.09,37-11.85,4.39-3.56,7.92-7.79,9.41-13.39a23.77,23.77,0,0,0-1.21-15.29,42.63,42.63,0,0,0-6.44-10.64,89.35,89.35,0,0,0-18.66-16.87C310.15,123,297.77,116.59,285,110.83c-11-5-21.82-10.25-31.73-17.21C245.73,88.28,239,82.14,234,74.18,223.36,57,225.36,33.33,238.72,19c7.12-7.64,16-12.37,25.88-15.3a95.28,95.28,0,0,1,42.47-2.39,87.56,87.56,0,0,1,29,9.57c6.92,3.81,13,8.63,17.52,15.2a5.48,5.48,0,0,1,1.07,2.81c.08,9,.05,18,.05,27.05Z"/><path class="cls-10" d="M675.26,123.45c.35.78.7,1.55,1,2.34,7.7,18,18,34.17,32.29,47.69,10.79,10.21,23,18.14,37.29,22.52s28.51,4.62,42.48-1.39a46.82,46.82,0,0,0,15-10.08c7.34-7.46,9.06-16.1,5.25-25.82-2.39-6.08-6.36-11.1-10.87-15.73a104.11,104.11,0,0,0-16.29-13.32A224.67,224.67,0,0,0,748,111.32c-11.38-5.15-22.64-10.54-32.9-17.77C707.51,88.21,700.8,82,695.82,74.08c-9.53-15.18-9.08-38.19,2.64-52.59A50.2,50.2,0,0,1,714.08,8.76,77.75,77.75,0,0,1,743.92.43a100,100,0,0,1,41,4.8c9.64,3.22,18.48,7.89,25.76,15.16.31.31.62.62.91.93,4.86,5.2,4.9,5.3,4.9,12.41v22L816,56c-.43-.76-.88-1.52-1.3-2.3A113.39,113.39,0,0,0,796.79,28.5C786.5,17.77,774.45,9.88,760,6c-13.65-3.61-27.12-3.16-40.28,2.22a42.82,42.82,0,0,0-14.54,9.4c-6.72,6.8-8.59,14.83-5.62,23.92,2.35,7.19,6.89,13,12.11,18.27,7.12,7.2,15.34,13,23.94,18.24A271.66,271.66,0,0,0,767.3,94.24a154.27,154.27,0,0,1,26.4,14.5c6.28,4.4,12.13,9.32,16.59,15.63,10.64,15,12.65,31.29,5.71,48.32-4.72,11.57-13.89,18.79-25.23,23.43a80.37,80.37,0,0,1-32.83,5.63,111.37,111.37,0,0,1-43.06-9.83,105.37,105.37,0,0,1-38.34-28.4,7.39,7.39,0,0,1-1.85-5.16c.09-10.76,0-21.52,0-32.27v-2.57Z"/><path class="cls-11" d="M399.66,198.9c1,0,1.82.14,2.66.14,15.26,0,30.53,0,45.79,0a58.79,58.79,0,0,0,13.41-1.5,41.32,41.32,0,0,0,24.39-16.62,78.38,78.38,0,0,0,8.86-16.45,6.81,6.81,0,0,1,1.5-2.43l-6.09,39.19H377.88V2.41c1.81-.58,107.8-.85,113.86-.25.15,7.15.05,14.33.06,22.13-1.4-1.19-2.31-1.93-3.19-2.72a65.59,65.59,0,0,0-18.41-12,67.66,67.66,0,0,0-20.68-4.8C433.33,3.36,417.1,4,400.89,3.89a9.55,9.55,0,0,0-1.2.19c-.06.66-.18,1.33-.18,2,0,15.44-.05,30.88.05,46.32A63.31,63.31,0,0,0,402,69.85c3.29,11.18,10.51,18.5,21.49,22.22a78.29,78.29,0,0,0,19.89,3.63c4.15.29,8.32.35,12.47.53.59,0,1.18.1,1.91.16v21.45c-.38-.15-.66-.18-.8-.34-4.92-5-10.92-8.49-17.14-11.62s-12.33-6-18.3-9.32c-10.31-5.74-17.81-14-21.26-25.5a15.11,15.11,0,0,0-.63-1.42Z"/><path class="cls-12" d="M860.67,201.26H840.11c-.58-1.91-.83-194-.26-199.12h20.82Z"/></g></g></svg>